<svg xmlns="http://www.w3.org/2000/svg" viewBox="0 0 420 320" fill="none">
  <rect width="420" height="320" fill="#071018"/>
  <path d="M60 40h300v240H60z" fill="#0d1828" stroke="#1a2a40" stroke-width="2"/>
  <path d="M60 40h300v28H60z" fill="#122030"/>
  <circle cx="78" cy="54" r="5" fill="#27d5dc" opacity="0.5"/>
  <circle cx="96" cy="54" r="5" fill="#27d5dc" opacity="0.3"/>
  <circle cx="114" cy="54" r="5" fill="#27d5dc" opacity="0.3"/>
  <path d="M80 68h260v196H80z" fill="#0a1420"/>
  <circle cx="290" cy="110" r="28" fill="#f0e6c8" opacity="0.9"/>
  <circle cx="302" cy="108" r="24" fill="#071018"/>
  <circle cx="120" cy="90" r="1.5" fill="#fff" opacity="0.8"/>
  <circle cx="160" cy="70" r="1" fill="#fff" opacity="0.6"/>
  <circle cx="200" cy="100" r="1.2" fill="#fff" opacity="0.7"/>
  <circle cx="240" cy="80" r="1" fill="#fff" opacity="0.5"/>
  <circle cx="180" cy="120" r="1" fill="#fff" opacity="0.6"/>
  <circle cx="220" cy="130" r="1.5" fill="#fff" opacity="0.8"/>
  <rect x="100" y="220" width="220" height="8" fill="#1a2535"/>
  <rect x="120" y="200" width="36" height="28" rx="2" fill="#27d5dc" opacity="0.15" stroke="#27d5dc" stroke-width="1"/>
  <rect x="124" y="204" width="28" height="4" rx="1" fill="#27d5dc" opacity="0.4"/>
  <ellipse cx="138" cy="218" rx="14" ry="6" fill="#f5d76e" opacity="0.85"/>
  <ellipse cx="138" cy="220" rx="10" ry="3" fill="#fff8dc" opacity="0.6"/>
  <rect x="168" y="206" width="14" height="22" rx="1" fill="#8b4513" opacity="0.6"/>
  <rect x="186" y="210" width="12" height="18" rx="1" fill="#6b3410" opacity="0.5"/>
  <rect x="202" y="208" width="16" height="20" rx="1" fill="#7a4020" opacity="0.55"/>
</svg>
