<svg xmlns="http://www.w3.org/2000/svg" viewBox="0 0 400 260" fill="none">
  <rect width="400" height="260" fill="#0b1220"/>
  <rect x="16" y="16" width="80" height="228" rx="8" fill="#111827"/>
  <rect x="28" y="32" width="56" height="8" rx="2" fill="#27d5dc"/>
  <rect x="28" y="52" width="48" height="6" rx="2" fill="#334155"/>
  <rect x="28" y="68" width="48" height="6" rx="2" fill="#334155"/>
  <rect x="28" y="84" width="48" height="6" rx="2" fill="#334155"/>
  <rect x="108" y="16" width="276" height="100" rx="8" fill="#111827"/>
  <rect x="120" y="28" width="80" height="10" rx="2" fill="#64748b"/>
  <rect x="120" y="48" width="120" height="20" rx="4" fill="#27d5dc" opacity="0.3"/>
  <rect x="260" y="48" width="100" height="20" rx="4" fill="#1e293b"/>
  <rect x="108" y="128" width="130" height="116" rx="8" fill="#111827"/>
  <rect x="120" y="140" width="106" height="60" rx="4" fill="#1e293b"/>
  <path d="M130 180 L150 160 L170 170 L190 150 L210 165" stroke="#27d5dc" stroke-width="2" fill="none"/>
  <rect x="254" y="128" width="130" height="116" rx="8" fill="#111827"/>
  <rect x="266" y="140" width="106" height="60" rx="4" fill="#1e293b"/>
  <rect x="276" y="170" width="16" height="30" rx="2" fill="#27d5dc" opacity="0.6"/>
  <rect x="300" y="155" width="16" height="45" rx="2" fill="#27d5dc" opacity="0.8"/>
  <rect x="324" y="165" width="16" height="35" rx="2" fill="#27d5dc" opacity="0.5"/>
</svg>
