<svg xmlns="http://www.w3.org/2000/svg" viewBox="0 0 400 260" fill="none">
  <rect width="400" height="260" fill="#111827"/>
  <rect x="16" y="16" width="368" height="228" rx="10" fill="#1f2937" stroke="#374151" stroke-width="1"/>
  <rect x="32" y="32" width="160" height="196" rx="6" fill="#0f172a"/>
  <rect x="208" y="32" width="160" height="196" rx="6" fill="#0f172a"/>
  <rect x="44" y="48" width="60" height="10" rx="2" fill="#27d5dc"/>
  <rect x="44" y="68" width="136" height="8" rx="2" fill="#475569"/>
  <rect x="44" y="84" width="120" height="8" rx="2" fill="#334155"/>
  <rect x="44" y="100" width="130" height="8" rx="2" fill="#334155"/>
  <rect x="44" y="116" width="100" height="8" rx="2" fill="#334155"/>
  <rect x="220" y="48" width="60" height="10" rx="2" fill="#27d5dc"/>
  <rect x="220" y="68" width="136" height="8" rx="2" fill="#475569"/>
  <rect x="220" y="84" width="110" height="8" rx="2" fill="#334155"/>
  <rect x="220" y="100" width="125" height="8" rx="2" fill="#334155"/>
  <rect x="168" y="120" width="48" height="24" rx="12" fill="#27d5dc" opacity="0.3"/>
  <path d="M184 128h16M192 120v16" stroke="#27d5dc" stroke-width="2" stroke-linecap="round"/>
  <rect x="44" y="196" width="80" height="24" rx="6" fill="#27d5dc" opacity="0.2"/>
  <rect x="220" y="196" width="80" height="24" rx="6" fill="#27d5dc" opacity="0.2"/>
</svg>
