<svg xmlns="http://www.w3.org/2000/svg" viewBox="0 0 48 48" fill="none" aria-hidden="true">
  <path fill="#ffffff" fill-rule="evenodd" clip-rule="evenodd" d="M24 4C13.5 4 5 12.6 5 23.2c0 8.5 5.5 15.7 13.1 18.2 1 .2 1.4-.4 1.4-.9v-3.2c-5.3 1.2-6.4-2.3-6.4-2.3-.9-2.2-2.1-2.8-2.1-2.8-1.7-1.2.1-1.2.1-1.2 1.9.1 2.9 2 2.9 2 1.7 2.9 4.4 2.1 5.5 1.6.2-1.3.7-2.1 1.2-2.6-4.2-.5-8.7-2.1-8.7-9.4 0-2.1.7-3.8 2-5.1-.2-.5-.9-2.5.2-5.2 0 0 1.6-.5 5.3 1.9 1.5-.4 3.2-.6 4.8-.6 1.6 0 3.3.2 4.8.6 3.7-2.4 5.3-1.9 5.3-1.9 1.1 2.7.4 4.7.2 5.2 1.2 1.3 2 3 2 5.1 0 7.3-4.5 8.9-8.8 9.4.7.6 1.3 1.8 1.3 3.7v5.5c0 .5.4 1.1 1.4.9C37.5 38.9 43 31.7 43 23.2 43 12.6 34.5 4 24 4z"/>
</svg>
