<svg xmlns="http://www.w3.org/2000/svg" viewBox="0 0 400 260" fill="none">
  <rect width="400" height="260" fill="#f1f5f9"/>
  <rect x="16" y="16" width="368" height="228" rx="10" fill="#fff" stroke="#e2e8f0"/>
  <rect x="32" y="32" width="100" height="196" rx="6" fill="#f8fafc"/>
  <rect x="44" y="48" width="60" height="8" rx="2" fill="#cbd5e1"/>
  <rect x="44" y="64" width="50" height="6" rx="2" fill="#e2e8f0"/>
  <rect x="44" y="78" width="50" height="6" rx="2" fill="#e2e8f0"/>
  <rect x="148" y="32" width="220" height="80" rx="6" fill="#f8fafc"/>
  <rect x="160" y="48" width="100" height="12" rx="3" fill="#1e293b"/>
  <rect x="160" y="68" width="160" height="8" rx="2" fill="#94a3b8"/>
  <rect x="148" y="124" width="100" height="60" rx="6" fill="#f8fafc"/>
  <rect x="260" y="124" width="108" height="60" rx="6" fill="#f8fafc"/>
  <rect x="148" y="196" width="220" height="32" rx="6" fill="#27d5dc" opacity="0.15"/>
  <rect x="160" y="206" width="80" height="12" rx="3" fill="#27d5dc"/>
</svg>
