<svg xmlns="http://www.w3.org/2000/svg" viewBox="0 0 400 260" fill="none">
  <rect width="400" height="260" fill="#0a0f18"/>
  <rect x="24" y="24" width="352" height="212" rx="12" fill="#111827" stroke="#1e293b"/>
  <rect x="40" y="44" width="120" height="14" rx="3" fill="#27d5dc"/>
  <rect x="280" y="44" width="80" height="14" rx="3" fill="#334155"/>
  <rect x="40" y="72" width="320" height="60" rx="8" fill="#1e293b"/>
  <rect x="56" y="88" width="200" height="12" rx="3" fill="#e2e8f0"/>
  <rect x="56" y="108" width="160" height="8" rx="2" fill="#64748b"/>
  <rect x="40" y="148" width="150" height="36" rx="8" fill="#1e293b" stroke="#27d5dc" stroke-width="1"/>
  <rect x="200" y="148" width="150" height="36" rx="8" fill="#1e293b"/>
  <rect x="40" y="196" width="150" height="36" rx="8" fill="#1e293b"/>
  <rect x="200" y="196" width="150" height="36" rx="8" fill="#1e293b"/>
  <circle cx="115" cy="166" r="6" fill="#27d5dc"/>
  <rect x="56" y="160" width="80" height="8" rx="2" fill="#94a3b8"/>
  <rect x="216" y="160" width="80" height="8" rx="2" fill="#94a3b8"/>
</svg>
